Coordinates
version=1
nRows=21
nColumns=33
inDegrees=yes

Units are S.I. units (second, meters, Newtons, ...)
Angles are in degrees.

endheader
time	ground_thorax_rot_x	ground_thorax_rot_y	ground_thorax_rot_z	ground_thorax_tx	ground_thorax_ty	ground_thorax_tz	clav_prot_r	clav_elev_r	scapula_abduction_r	scapula_elevation_r	scapula_upward_rot_r	scapula_winging_r	shoulder_elv_r	plane_of_elev_r	axial_rot_r	elbow_flexion_r	pro_sup_r	wrist_flex_r	wrist_dev_r	clav_prot_l	clav_elev_l	scapula_abduction_l	scapula_elevation_l	scapula_upward_rot_l	scapula_winging_l	shoulder_elv_l	plane_of_elev_l	axial_rot_l	elbow_flexion_l	pro_sup_l	wrist_flex_l	wrist_dev_l
      7.13000000	      1.19806958	      6.48454418	     11.48994117	     -0.11674875	      1.03109875	      0.03338688	      3.47859851	      8.95471397	     19.91743744	      4.12418364	     26.08808047	    -11.18988523	     27.00228352	    -68.86189878	     52.40577930	     70.78061486	    -16.09619373	     33.50312742	    -24.99999983	     17.10866120	     -9.02714638	    -26.14329556	    -15.63904037	    -41.03951317	      4.57819360	     66.29265462	    -25.65688829	      1.54870959	     68.91499231	      9.17043590	     18.17929540	    -13.21294548
      7.14000000	      1.13994485	      6.38361817	     11.44718016	     -0.11634861	      1.03088235	      0.03301565	      3.78703211	      8.61915701	     20.60369225	      3.83265084	     26.10473892	    -11.35743063	     27.04624149	    -68.19299045	     51.82636183	     70.52636779	    -16.40606875	     30.56792268	    -24.99999983	     17.39050524	     -9.29179501	    -26.45631828	    -15.11895187	    -40.45283442	      4.81237337	     66.20506156	    -25.07099907	      1.55626757	     68.11668340	      8.62916642	     19.16305286	    -11.96406919
      7.15000000	      1.08811927	      6.37160942	     11.51770845	     -0.11583203	      1.03076734	      0.03262593	      4.00808779	      8.26975231	     21.17756164	      3.51307670	     26.18325459	    -11.49448771	     27.16061610	    -67.47659066	     51.76266994	     69.70129581	    -16.45124186	     30.17058795	    -24.99999983	     17.62062419	     -9.66457395	    -26.71703061	    -14.58572341	    -40.04356469	      4.98354448	     66.41408217	    -24.44331096	      1.20967648	     67.04274367	      8.71061548	     19.27282129	    -11.67708969
      7.16000000	      1.07202572	      6.19672970	     11.58025645	     -0.11534479	      1.03014032	      0.03215474	      4.30845809	      8.16868228	     21.99815041	      3.34042480	     26.46133175	    -11.75220828	     26.92331299	    -66.65791719	     51.50471983	     69.12902608	    -17.32714272	     26.73406910	    -24.99999983	     17.85843835	     -9.63095663	    -26.96202811	    -14.27973785	    -39.33458758	      5.21134875	     65.88057216	    -23.46059421	      1.31411166	     65.82986940	      8.12261085	     20.58765264	    -10.02152133
      7.17000000	      1.03620906	      6.06321865	     11.52186719	     -0.11486232	      1.02985122	      0.03172041	      4.60888868	      7.84521014	     22.70441313	      3.04284074	     26.54286414	    -11.93272347	     26.87686691	    -65.63932837	     51.19403072	     68.23894210	    -17.47899157	     24.37297560	    -24.99999983	     18.13084516	     -9.93366946	    -27.26897834	    -13.72731688	    -38.75174535	      5.42701251	     65.72347383	    -22.65961443	      1.40694463	     64.59839730	      7.74936263	     21.49438863	     -8.76006464
      7.18000000	      0.96985752	      6.03883776	     11.43178653	     -0.11432918	      1.02978965	      0.03125713	      4.89188838	      7.30089418	     23.37820300	      2.57815746	     26.57021847	    -12.06646152	     26.97974545	    -64.71489699	     51.09652797	     67.00121306	    -17.63679787	     23.95631457	    -24.99999983	     18.38129497	    -10.44639811	    -27.54020212	    -13.02945883	    -38.25631922	      5.58500049	     65.95863810	    -21.95052588	      1.15940065	     63.19476684	      7.88624191	     21.57113975	     -8.44297493
      7.19000000	      0.94365262	      5.80183170	     11.43722487	     -0.11374435	      1.02916072	      0.03071736	      5.21064749	      7.15016663	     24.22683914	      2.36914190	     26.84465155	    -12.32851558	     26.60945660	    -63.40517820	     51.31196858	     65.59902989	    -19.27784974	     21.87341855	    -24.99999983	     18.57854644	    -10.50980488	    -27.73320186	    -12.64498909	    -37.56595998	      5.76724964	     65.43022527	    -20.85105831	      1.44074739	     61.51016835	      7.77127791	     22.57121050	     -7.37496621
      7.20000000	      0.85481313	      5.78289130	     11.34145725	     -0.11322400	      1.02912765	      0.03026739	      5.56536083	      6.49793221	     24.98256923	      1.83686848	     26.80467136	    -12.46599143	     26.63654734	    -62.36015037	     51.27815605	     64.01036807	    -19.58227735	     21.40595275	    -24.99999983	     18.84695093	    -11.10625872	    -28.02320081	    -11.85504102	    -37.03046075	      5.91389559	     65.64834287	    -20.12426461	      1.22735915	     59.81358782	      7.95394387	     22.69729862	     -6.99439682
      7.21000000	      0.80312686	      5.45003462	     11.26491188	     -0.11265665	      1.02821778	      0.02962574	      5.93081838	      6.47125620	     25.95994823	      1.70398645	     27.17872932	    -12.79691278	     26.06056598	    -60.56634876	     52.08090303	     61.94228794	    -21.97906003	     19.83782426	    -24.99999983	     19.04157890	    -11.09348344	    -28.23144697	    -11.52853188	    -36.32101150	      6.10951239	     65.03249696	    -18.86903565	      1.70354568	     57.90122732	      8.03576052	     23.84692069	     -6.08306357
      7.22000000	      0.62165145	      5.20436081	     11.32535597	     -0.11211882	      1.02810999	      0.02904310	      6.33316492	      5.85807130	     26.84230586	      1.18178981	     27.22552588	    -12.98173238	     25.64105422	    -59.00168003	     52.69717389	     59.48824885	    -23.50238110	     19.16247976	    -24.99999983	     19.24907946	    -11.48675835	    -28.45130601	    -10.93157082	    -35.80551352	      6.22390040	     64.86362472	    -18.07051860	      2.06059498	     55.97033903	      8.26808921	     24.44116254	     -5.54542362
      7.23000000	      0.81339044	      5.14808822	     11.31430661	     -0.11156127	      1.02716313	      0.02857664	      6.71068168	      6.04126750	     27.68158518	      1.26364647	     27.45599484	    -13.30899381	     25.04926793	    -57.14462748	     54.12261336	     57.06130961	    -28.61192883	     19.70153743	    -24.99999983	     19.49174537	    -11.84783712	    -28.72665772	    -10.32261841	    -35.20534881	      6.38218255	     64.39922558	    -16.60605078	      2.36451003	     53.46198525	      8.97913566	     26.17840442	     -4.93439166
      7.24000000	      0.34638334	      4.82116490	     11.39424795	     -0.11123966	      1.02718615	      0.02794048	      7.23332478	      5.05128942	     28.81128831	      0.43767471	     27.49145993	    -13.50633722	     24.37012920	    -55.40380334	     55.34508606	     53.81575557	    -29.59861375	     19.57864240	    -24.99999983	     19.75708652	    -12.20778619	    -29.05786044	     -9.76729797	    -34.71822257	      6.54605196	     64.46984879	    -16.02219088	      2.65132218	     51.31203395	      9.34064736	     26.33802782	     -4.64726334
      7.25000000	      0.27503926	      4.66463886	     11.28283036	     -0.11112359	      1.02705181	      0.02631850	      7.56648173	      5.38298393	     30.77612167	      0.24181436	     29.23744634	    -14.26086880	     20.39943126	    -52.23660533	     62.64150727	     45.68802904	    -48.32395609	     35.88400561	    -24.99999983	     20.06821990	    -12.52607468	    -29.48997322	     -9.30761968	    -34.36048114	      6.76077962	     64.24807649	    -14.31137448	      3.58522722	     48.68761251	     12.44838716	     28.90590126	     -6.00202940
      7.26000000	     -2.25093875	      3.59853174	     10.85042870	     -0.11110659	      1.02601868	      0.01364850	     14.16509132	    -13.00564272	     31.47449308	    -10.36891784	     13.04680577	     -8.07760853	    -12.85926549	    -63.34088041	    120.53912446	    -62.97764538	   -154.04019529	      0.48868171	      6.73003462	     19.61985012	     -8.37936891	    -28.78139595	    -11.26267077	    -30.68312817	      7.37154688	     60.40822385	    -11.53886330	      4.28911640	     46.25076724	     13.28242102	     28.15943252	     -3.82260231
      7.27000000	     -2.54446303	      3.81635786	     10.54887098	     -0.10975078	      1.02605034	      0.01339729	     13.79661702	    -13.35735203	     31.54132391	    -11.04860751	     14.14636296	     -7.80738850	    -11.39240226	    -62.19042324	    121.47969521	    -60.01489009	   -153.15251891	     -0.15168135	      7.36184628	     20.02598627	     -8.73042213	    -29.41458369	    -10.69873726	    -30.19592258	      7.73233953	     60.41732146	    -10.02269787	      4.69766772	     43.26844014	     13.60654222	     28.49712199	     -3.69880037
      7.28000000	     -2.83879714	      3.95218812	     10.44791490	     -0.10891721	      1.02568731	      0.01316374	     13.87560835	    -13.66623494	     31.99713705	    -11.49379615	     14.69412175	     -7.78122488	     -9.56686781	    -60.80647364	    122.38328582	    -57.01705485	   -151.83541974	     -0.63785213	      8.00926235	     20.59227906	     -8.91839930	    -30.33394729	    -10.29627161	    -29.76465789	      8.26771432	     60.13249104	     -8.45198055	      5.31662788	     40.15502511	     14.21552625	     28.88514667	     -3.84828697
      7.29000000	     -3.06044453	      4.07769273	     10.34985287	     -0.10805051	      1.02542649	      0.01298477	     13.97998474	    -13.95914341	     32.52491352	    -11.93658774	     15.28821036	     -7.78765188	     -7.89216283	    -59.51911914	    123.07656894	    -53.92221948	   -150.45122013	     -1.04175878	      8.56736363	     21.15987941	     -9.23136457	    -31.24569080	     -9.79139563	    -29.34637330	      8.78135466	     59.87589056	     -7.02267372	      5.93890137	     37.06416549	     15.07055533	     29.11305514	     -4.07579188
      7.30000000	     -3.26964126	      4.18451193	     10.24421271	     -0.10709524	      1.02517947	      0.01282375	     14.10969892	    -14.24014196	     33.12353976	    -12.37980995	     15.92796103	     -7.82200249	     -6.39332483	    -58.29829338	    123.58079051	    -50.76868963	   -149.03073611	     -1.37632991	      9.01436953	     21.68933045	     -9.49565053	    -32.09416477	     -9.30486766	    -28.86910863	      9.27304369	     59.58609703	     -5.65949133	      6.48962086	     33.98302628	     16.00436449	     29.19088453	     -4.35148622
      7.31000000	     -3.38955262	      4.30650169	     10.16252949	     -0.10622650	      1.02484959	      0.01274461	     14.28277907	    -14.44192795	     33.77762723	    -12.74241789	     16.53744111	     -7.92161151	     -4.93542692	    -57.15579476	    123.97339064	    -47.66317109	   -147.29966269	     -1.60791582	      9.40267513	     22.28103542	     -9.74961982	    -33.05234938	     -8.82878600	    -28.40792778	      9.83014654	     59.23741474	     -4.31849984	      6.85904192	     30.96795039	     17.11763974	     29.08467489	     -4.79528496
      7.32000000	     -3.63373328	      4.41745628	      9.87374072	     -0.10494981	      1.02509911	      0.01262662	     14.52573872	    -14.97452132	     34.57704031	    -13.40792932	     17.22453872	     -7.87708201	     -3.85710755	    -56.26293051	    123.87159696	    -44.78300166	   -146.63262394	     -2.10832271	      9.57746468	     22.65295496	    -10.21486518	    -33.61125306	     -8.12884645	    -27.80890758	     10.12039124	     59.32746545	     -3.51949815	      6.73933131	     28.26922162	     17.70962032	     28.97184145	     -4.56338590
      7.33000000	     -3.63136574	      4.54478962	      9.87327490	     -0.10405534	      1.02428772	      0.01259517	     14.69929425	    -14.66640098	     35.35266449	    -13.35493294	     17.98438976	     -8.34588778	     -2.59326997	    -55.19505751	    124.57775029	    -41.70810013	   -143.57947113	     -2.01212259	      9.68425615	     23.37366108	    -10.11985799	    -34.81889137	     -7.93386460	    -27.30725375	     10.89645745	     58.42036258	     -1.96743712	      7.32035629	     25.26792781	     19.00458436	     27.95352436	     -5.47703253
